<svg version="1.1" xmlns="http://www.w3.org/2000/svg" width="220px" height="220px" viewBox="0 0 220 220" preserveAspectRatio="xMinYMin meet" xmlns:xlink="http://www.w3.org/1999/xlink" xmlns:svgjs="http://svgjs.com/svgjs"><rect width="100%" height="100%" fill="#d7d7db" cx="0" cy="0"/><path d="M8,8l7,0 0,7 -7,0 0,-7z M15,8l7,0 0,7 -7,0 0,-7z M22,8l7,0 0,7 -7,0 0,-7z M29,8l7,0 0,7 -7,0 0,-7z M36,8l7,0 0,7 -7,0 0,-7z M43,8l7,0 0,7 -7,0 0,-7z M50,8l7,0 0,7 -7,0 0,-7z M85,8l7,0 0,7 -7,0 0,-7z M99,8l7,0 0,7 -7,0 0,-7z M120,8l7,0 0,7 -7,0 0,-7z M141,8l7,0 0,7 -7,0 0,-7z M148,8l7,0 0,7 -7,0 0,-7z M162,8l7,0 0,7 -7,0 0,-7z M169,8l7,0 0,7 -7,0 0,-7z M176,8l7,0 0,7 -7,0 0,-7z M183,8l7,0 0,7 -7,0 0,-7z M190,8l7,0 0,7 -7,0 0,-7z M197,8l7,0 0,7 -7,0 0,-7z M204,8l7,0 0,7 -7,0 0,-7z M8,15l7,0 0,7 -7,0 0,-7z M50,15l7,0 0,7 -7,0 0,-7z M64,15l7,0 0,7 -7,0 0,-7z M71,15l7,0 0,7 -7,0 0,-7z M78,15l7,0 0,7 -7,0 0,-7z M106,15l7,0 0,7 -7,0 0,-7z M127,15l7,0 0,7 -7,0 0,-7z M141,15l7,0 0,7 -7,0 0,-7z M162,15l7,0 0,7 -7,0 0,-7z M204,15l7,0 0,7 -7,0 0,-7z M8,22l7,0 0,7 -7,0 0,-7z M22,22l7,0 0,7 -7,0 0,-7z M29,22l7,0 0,7 -7,0 0,-7z M36,22l7,0 0,7 -7,0 0,-7z M50,22l7,0 0,7 -7,0 0,-7z M71,22l7,0 0,7 -7,0 0,-7z M85,22l7,0 0,7 -7,0 0,-7z M113,22l7,0 0,7 -7,0 0,-7z M134,22l7,0 0,7 -7,0 0,-7z M141,22l7,0 0,7 -7,0 0,-7z M162,22l7,0 0,7 -7,0 0,-7z M176,22l7,0 0,7 -7,0 0,-7z M183,22l7,0 0,7 -7,0 0,-7z M190,22l7,0 0,7 -7,0 0,-7z M204,22l7,0 0,7 -7,0 0,-7z M8,29l7,0 0,7 -7,0 0,-7z M22,29l7,0 0,7 -7,0 0,-7z M29,29l7,0 0,7 -7,0 0,-7z M36,29l7,0 0,7 -7,0 0,-7z M50,29l7,0 0,7 -7,0 0,-7z M64,29l7,0 0,7 -7,0 0,-7z M71,29l7,0 0,7 -7,0 0,-7z M78,29l7,0 0,7 -7,0 0,-7z M85,29l7,0 0,7 -7,0 0,-7z M92,29l7,0 0,7 -7,0 0,-7z M106,29l7,0 0,7 -7,0 0,-7z M113,29l7,0 0,7 -7,0 0,-7z M127,29l7,0 0,7 -7,0 0,-7z M148,29l7,0 0,7 -7,0 0,-7z M162,29l7,0 0,7 -7,0 0,-7z M176,29l7,0 0,7 -7,0 0,-7z M183,29l7,0 0,7 -7,0 0,-7z M190,29l7,0 0,7 -7,0 0,-7z M204,29l7,0 0,7 -7,0 0,-7z M8,36l7,0 0,7 -7,0 0,-7z M22,36l7,0 0,7 -7,0 0,-7z M29,36l7,0 0,7 -7,0 0,-7z M36,36l7,0 0,7 -7,0 0,-7z M50,36l7,0 0,7 -7,0 0,-7z M64,36l7,0 0,7 -7,0 0,-7z M78,36l7,0 0,7 -7,0 0,-7z M92,36l7,0 0,7 -7,0 0,-7z M106,36l7,0 0,7 -7,0 0,-7z M134,36l7,0 0,7 -7,0 0,-7z M141,36l7,0 0,7 -7,0 0,-7z M162,36l7,0 0,7 -7,0 0,-7z M176,36l7,0 0,7 -7,0 0,-7z M183,36l7,0 0,7 -7,0 0,-7z M190,36l7,0 0,7 -7,0 0,-7z M204,36l7,0 0,7 -7,0 0,-7z M8,43l7,0 0,7 -7,0 0,-7z M50,43l7,0 0,7 -7,0 0,-7z M78,43l7,0 0,7 -7,0 0,-7z M85,43l7,0 0,7 -7,0 0,-7z M92,43l7,0 0,7 -7,0 0,-7z M99,43l7,0 0,7 -7,0 0,-7z M113,43l7,0 0,7 -7,0 0,-7z M148,43l7,0 0,7 -7,0 0,-7z M162,43l7,0 0,7 -7,0 0,-7z M204,43l7,0 0,7 -7,0 0,-7z M8,50l7,0 0,7 -7,0 0,-7z M15,50l7,0 0,7 -7,0 0,-7z M22,50l7,0 0,7 -7,0 0,-7z M29,50l7,0 0,7 -7,0 0,-7z M36,50l7,0 0,7 -7,0 0,-7z M43,50l7,0 0,7 -7,0 0,-7z M50,50l7,0 0,7 -7,0 0,-7z M64,50l7,0 0,7 -7,0 0,-7z M78,50l7,0 0,7 -7,0 0,-7z M92,50l7,0 0,7 -7,0 0,-7z M106,50l7,0 0,7 -7,0 0,-7z M120,50l7,0 0,7 -7,0 0,-7z M134,50l7,0 0,7 -7,0 0,-7z M148,50l7,0 0,7 -7,0 0,-7z M162,50l7,0 0,7 -7,0 0,-7z M169,50l7,0 0,7 -7,0 0,-7z M176,50l7,0 0,7 -7,0 0,-7z M183,50l7,0 0,7 -7,0 0,-7z M190,50l7,0 0,7 -7,0 0,-7z M197,50l7,0 0,7 -7,0 0,-7z M204,50l7,0 0,7 -7,0 0,-7z M64,57l7,0 0,7 -7,0 0,-7z M78,57l7,0 0,7 -7,0 0,-7z M85,57l7,0 0,7 -7,0 0,-7z M99,57l7,0 0,7 -7,0 0,-7z M113,57l7,0 0,7 -7,0 0,-7z M120,57l7,0 0,7 -7,0 0,-7z M127,57l7,0 0,7 -7,0 0,-7z M134,57l7,0 0,7 -7,0 0,-7z M141,57l7,0 0,7 -7,0 0,-7z M148,57l7,0 0,7 -7,0 0,-7z M15,64l7,0 0,7 -7,0 0,-7z M29,64l7,0 0,7 -7,0 0,-7z M36,64l7,0 0,7 -7,0 0,-7z M43,64l7,0 0,7 -7,0 0,-7z M50,64l7,0 0,7 -7,0 0,-7z M64,64l7,0 0,7 -7,0 0,-7z M78,64l7,0 0,7 -7,0 0,-7z M99,64l7,0 0,7 -7,0 0,-7z M113,64l7,0 0,7 -7,0 0,-7z M120,64l7,0 0,7 -7,0 0,-7z M155,64l7,0 0,7 -7,0 0,-7z M162,64l7,0 0,7 -7,0 0,-7z M176,64l7,0 0,7 -7,0 0,-7z M183,64l7,0 0,7 -7,0 0,-7z M197,64l7,0 0,7 -7,0 0,-7z M15,71l7,0 0,7 -7,0 0,-7z M29,71l7,0 0,7 -7,0 0,-7z M57,71l7,0 0,7 -7,0 0,-7z M64,71l7,0 0,7 -7,0 0,-7z M85,71l7,0 0,7 -7,0 0,-7z M106,71l7,0 0,7 -7,0 0,-7z M113,71l7,0 0,7 -7,0 0,-7z M127,71l7,0 0,7 -7,0 0,-7z M134,71l7,0 0,7 -7,0 0,-7z M155,71l7,0 0,7 -7,0 0,-7z M176,71l7,0 0,7 -7,0 0,-7z M183,71l7,0 0,7 -7,0 0,-7z M190,71l7,0 0,7 -7,0 0,-7z M197,71l7,0 0,7 -7,0 0,-7z M8,78l7,0 0,7 -7,0 0,-7z M43,78l7,0 0,7 -7,0 0,-7z M50,78l7,0 0,7 -7,0 0,-7z M57,78l7,0 0,7 -7,0 0,-7z M78,78l7,0 0,7 -7,0 0,-7z M85,78l7,0 0,7 -7,0 0,-7z M92,78l7,0 0,7 -7,0 0,-7z M106,78l7,0 0,7 -7,0 0,-7z M127,78l7,0 0,7 -7,0 0,-7z M141,78l7,0 0,7 -7,0 0,-7z M148,78l7,0 0,7 -7,0 0,-7z M155,78l7,0 0,7 -7,0 0,-7z M162,78l7,0 0,7 -7,0 0,-7z M190,78l7,0 0,7 -7,0 0,-7z M22,85l7,0 0,7 -7,0 0,-7z M29,85l7,0 0,7 -7,0 0,-7z M43,85l7,0 0,7 -7,0 0,-7z M64,85l7,0 0,7 -7,0 0,-7z M78,85l7,0 0,7 -7,0 0,-7z M92,85l7,0 0,7 -7,0 0,-7z M99,85l7,0 0,7 -7,0 0,-7z M127,85l7,0 0,7 -7,0 0,-7z M141,85l7,0 0,7 -7,0 0,-7z M148,85l7,0 0,7 -7,0 0,-7z M169,85l7,0 0,7 -7,0 0,-7z M176,85l7,0 0,7 -7,0 0,-7z M204,85l7,0 0,7 -7,0 0,-7z M8,92l7,0 0,7 -7,0 0,-7z M15,92l7,0 0,7 -7,0 0,-7z M29,92l7,0 0,7 -7,0 0,-7z M36,92l7,0 0,7 -7,0 0,-7z M43,92l7,0 0,7 -7,0 0,-7z M50,92l7,0 0,7 -7,0 0,-7z M78,92l7,0 0,7 -7,0 0,-7z M85,92l7,0 0,7 -7,0 0,-7z M92,92l7,0 0,7 -7,0 0,-7z M106,92l7,0 0,7 -7,0 0,-7z M120,92l7,0 0,7 -7,0 0,-7z M148,92l7,0 0,7 -7,0 0,-7z M155,92l7,0 0,7 -7,0 0,-7z M162,92l7,0 0,7 -7,0 0,-7z M183,92l7,0 0,7 -7,0 0,-7z M197,92l7,0 0,7 -7,0 0,-7z M8,99l7,0 0,7 -7,0 0,-7z M15,99l7,0 0,7 -7,0 0,-7z M29,99l7,0 0,7 -7,0 0,-7z M57,99l7,0 0,7 -7,0 0,-7z M71,99l7,0 0,7 -7,0 0,-7z M99,99l7,0 0,7 -7,0 0,-7z M134,99l7,0 0,7 -7,0 0,-7z M162,99l7,0 0,7 -7,0 0,-7z M176,99l7,0 0,7 -7,0 0,-7z M190,99l7,0 0,7 -7,0 0,-7z M197,99l7,0 0,7 -7,0 0,-7z M204,99l7,0 0,7 -7,0 0,-7z M22,106l7,0 0,7 -7,0 0,-7z M36,106l7,0 0,7 -7,0 0,-7z M50,106l7,0 0,7 -7,0 0,-7z M71,106l7,0 0,7 -7,0 0,-7z M78,106l7,0 0,7 -7,0 0,-7z M99,106l7,0 0,7 -7,0 0,-7z M106,106l7,0 0,7 -7,0 0,-7z M113,106l7,0 0,7 -7,0 0,-7z M134,106l7,0 0,7 -7,0 0,-7z M141,106l7,0 0,7 -7,0 0,-7z M155,106l7,0 0,7 -7,0 0,-7z M162,106l7,0 0,7 -7,0 0,-7z M169,106l7,0 0,7 -7,0 0,-7z M183,106l7,0 0,7 -7,0 0,-7z M204,106l7,0 0,7 -7,0 0,-7z M15,113l7,0 0,7 -7,0 0,-7z M22,113l7,0 0,7 -7,0 0,-7z M36,113l7,0 0,7 -7,0 0,-7z M43,113l7,0 0,7 -7,0 0,-7z M71,113l7,0 0,7 -7,0 0,-7z M78,113l7,0 0,7 -7,0 0,-7z M85,113l7,0 0,7 -7,0 0,-7z M106,113l7,0 0,7 -7,0 0,-7z M113,113l7,0 0,7 -7,0 0,-7z M120,113l7,0 0,7 -7,0 0,-7z M155,113l7,0 0,7 -7,0 0,-7z M176,113l7,0 0,7 -7,0 0,-7z M183,113l7,0 0,7 -7,0 0,-7z M190,113l7,0 0,7 -7,0 0,-7z M197,113l7,0 0,7 -7,0 0,-7z M204,113l7,0 0,7 -7,0 0,-7z M8,120l7,0 0,7 -7,0 0,-7z M22,120l7,0 0,7 -7,0 0,-7z M29,120l7,0 0,7 -7,0 0,-7z M36,120l7,0 0,7 -7,0 0,-7z M50,120l7,0 0,7 -7,0 0,-7z M57,120l7,0 0,7 -7,0 0,-7z M78,120l7,0 0,7 -7,0 0,-7z M99,120l7,0 0,7 -7,0 0,-7z M113,120l7,0 0,7 -7,0 0,-7z M127,120l7,0 0,7 -7,0 0,-7z M134,120l7,0 0,7 -7,0 0,-7z M141,120l7,0 0,7 -7,0 0,-7z M155,120l7,0 0,7 -7,0 0,-7z M169,120l7,0 0,7 -7,0 0,-7z M183,120l7,0 0,7 -7,0 0,-7z M8,127l7,0 0,7 -7,0 0,-7z M29,127l7,0 0,7 -7,0 0,-7z M36,127l7,0 0,7 -7,0 0,-7z M43,127l7,0 0,7 -7,0 0,-7z M57,127l7,0 0,7 -7,0 0,-7z M92,127l7,0 0,7 -7,0 0,-7z M99,127l7,0 0,7 -7,0 0,-7z M106,127l7,0 0,7 -7,0 0,-7z M162,127l7,0 0,7 -7,0 0,-7z M176,127l7,0 0,7 -7,0 0,-7z M183,127l7,0 0,7 -7,0 0,-7z M190,127l7,0 0,7 -7,0 0,-7z M8,134l7,0 0,7 -7,0 0,-7z M15,134l7,0 0,7 -7,0 0,-7z M50,134l7,0 0,7 -7,0 0,-7z M64,134l7,0 0,7 -7,0 0,-7z M78,134l7,0 0,7 -7,0 0,-7z M120,134l7,0 0,7 -7,0 0,-7z M141,134l7,0 0,7 -7,0 0,-7z M169,134l7,0 0,7 -7,0 0,-7z M176,134l7,0 0,7 -7,0 0,-7z M204,134l7,0 0,7 -7,0 0,-7z M8,141l7,0 0,7 -7,0 0,-7z M15,141l7,0 0,7 -7,0 0,-7z M22,141l7,0 0,7 -7,0 0,-7z M57,141l7,0 0,7 -7,0 0,-7z M64,141l7,0 0,7 -7,0 0,-7z M78,141l7,0 0,7 -7,0 0,-7z M85,141l7,0 0,7 -7,0 0,-7z M92,141l7,0 0,7 -7,0 0,-7z M99,141l7,0 0,7 -7,0 0,-7z M113,141l7,0 0,7 -7,0 0,-7z M120,141l7,0 0,7 -7,0 0,-7z M141,141l7,0 0,7 -7,0 0,-7z M148,141l7,0 0,7 -7,0 0,-7z M155,141l7,0 0,7 -7,0 0,-7z M162,141l7,0 0,7 -7,0 0,-7z M183,141l7,0 0,7 -7,0 0,-7z M190,141l7,0 0,7 -7,0 0,-7z M197,141l7,0 0,7 -7,0 0,-7z M204,141l7,0 0,7 -7,0 0,-7z M8,148l7,0 0,7 -7,0 0,-7z M15,148l7,0 0,7 -7,0 0,-7z M22,148l7,0 0,7 -7,0 0,-7z M50,148l7,0 0,7 -7,0 0,-7z M57,148l7,0 0,7 -7,0 0,-7z M64,148l7,0 0,7 -7,0 0,-7z M71,148l7,0 0,7 -7,0 0,-7z M78,148l7,0 0,7 -7,0 0,-7z M85,148l7,0 0,7 -7,0 0,-7z M92,148l7,0 0,7 -7,0 0,-7z M99,148l7,0 0,7 -7,0 0,-7z M120,148l7,0 0,7 -7,0 0,-7z M127,148l7,0 0,7 -7,0 0,-7z M141,148l7,0 0,7 -7,0 0,-7z M148,148l7,0 0,7 -7,0 0,-7z M155,148l7,0 0,7 -7,0 0,-7z M162,148l7,0 0,7 -7,0 0,-7z M169,148l7,0 0,7 -7,0 0,-7z M176,148l7,0 0,7 -7,0 0,-7z M190,148l7,0 0,7 -7,0 0,-7z M204,148l7,0 0,7 -7,0 0,-7z M64,155l7,0 0,7 -7,0 0,-7z M85,155l7,0 0,7 -7,0 0,-7z M92,155l7,0 0,7 -7,0 0,-7z M106,155l7,0 0,7 -7,0 0,-7z M113,155l7,0 0,7 -7,0 0,-7z M127,155l7,0 0,7 -7,0 0,-7z M134,155l7,0 0,7 -7,0 0,-7z M148,155l7,0 0,7 -7,0 0,-7z M176,155l7,0 0,7 -7,0 0,-7z M183,155l7,0 0,7 -7,0 0,-7z M190,155l7,0 0,7 -7,0 0,-7z M8,162l7,0 0,7 -7,0 0,-7z M15,162l7,0 0,7 -7,0 0,-7z M22,162l7,0 0,7 -7,0 0,-7z M29,162l7,0 0,7 -7,0 0,-7z M36,162l7,0 0,7 -7,0 0,-7z M43,162l7,0 0,7 -7,0 0,-7z M50,162l7,0 0,7 -7,0 0,-7z M71,162l7,0 0,7 -7,0 0,-7z M85,162l7,0 0,7 -7,0 0,-7z M92,162l7,0 0,7 -7,0 0,-7z M99,162l7,0 0,7 -7,0 0,-7z M113,162l7,0 0,7 -7,0 0,-7z M141,162l7,0 0,7 -7,0 0,-7z M148,162l7,0 0,7 -7,0 0,-7z M162,162l7,0 0,7 -7,0 0,-7z M176,162l7,0 0,7 -7,0 0,-7z M190,162l7,0 0,7 -7,0 0,-7z M8,169l7,0 0,7 -7,0 0,-7z M50,169l7,0 0,7 -7,0 0,-7z M64,169l7,0 0,7 -7,0 0,-7z M85,169l7,0 0,7 -7,0 0,-7z M99,169l7,0 0,7 -7,0 0,-7z M113,169l7,0 0,7 -7,0 0,-7z M134,169l7,0 0,7 -7,0 0,-7z M141,169l7,0 0,7 -7,0 0,-7z M148,169l7,0 0,7 -7,0 0,-7z M176,169l7,0 0,7 -7,0 0,-7z M183,169l7,0 0,7 -7,0 0,-7z M8,176l7,0 0,7 -7,0 0,-7z M22,176l7,0 0,7 -7,0 0,-7z M29,176l7,0 0,7 -7,0 0,-7z M36,176l7,0 0,7 -7,0 0,-7z M50,176l7,0 0,7 -7,0 0,-7z M64,176l7,0 0,7 -7,0 0,-7z M78,176l7,0 0,7 -7,0 0,-7z M92,176l7,0 0,7 -7,0 0,-7z M99,176l7,0 0,7 -7,0 0,-7z M127,176l7,0 0,7 -7,0 0,-7z M141,176l7,0 0,7 -7,0 0,-7z M148,176l7,0 0,7 -7,0 0,-7z M155,176l7,0 0,7 -7,0 0,-7z M162,176l7,0 0,7 -7,0 0,-7z M169,176l7,0 0,7 -7,0 0,-7z M176,176l7,0 0,7 -7,0 0,-7z M8,183l7,0 0,7 -7,0 0,-7z M22,183l7,0 0,7 -7,0 0,-7z M29,183l7,0 0,7 -7,0 0,-7z M36,183l7,0 0,7 -7,0 0,-7z M50,183l7,0 0,7 -7,0 0,-7z M64,183l7,0 0,7 -7,0 0,-7z M71,183l7,0 0,7 -7,0 0,-7z M78,183l7,0 0,7 -7,0 0,-7z M85,183l7,0 0,7 -7,0 0,-7z M99,183l7,0 0,7 -7,0 0,-7z M106,183l7,0 0,7 -7,0 0,-7z M134,183l7,0 0,7 -7,0 0,-7z M169,183l7,0 0,7 -7,0 0,-7z M183,183l7,0 0,7 -7,0 0,-7z M190,183l7,0 0,7 -7,0 0,-7z M197,183l7,0 0,7 -7,0 0,-7z M8,190l7,0 0,7 -7,0 0,-7z M22,190l7,0 0,7 -7,0 0,-7z M29,190l7,0 0,7 -7,0 0,-7z M36,190l7,0 0,7 -7,0 0,-7z M50,190l7,0 0,7 -7,0 0,-7z M78,190l7,0 0,7 -7,0 0,-7z M99,190l7,0 0,7 -7,0 0,-7z M113,190l7,0 0,7 -7,0 0,-7z M127,190l7,0 0,7 -7,0 0,-7z M134,190l7,0 0,7 -7,0 0,-7z M148,190l7,0 0,7 -7,0 0,-7z M155,190l7,0 0,7 -7,0 0,-7z M169,190l7,0 0,7 -7,0 0,-7z M176,190l7,0 0,7 -7,0 0,-7z M190,190l7,0 0,7 -7,0 0,-7z M197,190l7,0 0,7 -7,0 0,-7z M204,190l7,0 0,7 -7,0 0,-7z M8,197l7,0 0,7 -7,0 0,-7z M50,197l7,0 0,7 -7,0 0,-7z M64,197l7,0 0,7 -7,0 0,-7z M71,197l7,0 0,7 -7,0 0,-7z M85,197l7,0 0,7 -7,0 0,-7z M120,197l7,0 0,7 -7,0 0,-7z M134,197l7,0 0,7 -7,0 0,-7z M148,197l7,0 0,7 -7,0 0,-7z M155,197l7,0 0,7 -7,0 0,-7z M176,197l7,0 0,7 -7,0 0,-7z M190,197l7,0 0,7 -7,0 0,-7z M204,197l7,0 0,7 -7,0 0,-7z M8,204l7,0 0,7 -7,0 0,-7z M15,204l7,0 0,7 -7,0 0,-7z M22,204l7,0 0,7 -7,0 0,-7z M29,204l7,0 0,7 -7,0 0,-7z M36,204l7,0 0,7 -7,0 0,-7z M43,204l7,0 0,7 -7,0 0,-7z M50,204l7,0 0,7 -7,0 0,-7z M78,204l7,0 0,7 -7,0 0,-7z M99,204l7,0 0,7 -7,0 0,-7z M106,204l7,0 0,7 -7,0 0,-7z M113,204l7,0 0,7 -7,0 0,-7z M134,204l7,0 0,7 -7,0 0,-7z M141,204l7,0 0,7 -7,0 0,-7z M155,204l7,0 0,7 -7,0 0,-7z M162,204l7,0 0,7 -7,0 0,-7z M169,204l7,0 0,7 -7,0 0,-7z M176,204l7,0 0,7 -7,0 0,-7z M183,204l7,0 0,7 -7,0 0,-7z " stroke="transparent" fill="#0c0c0d"/></svg>